Coordinates
version=1
nRows=38
nColumns=12
inDegrees=yes

Units are S.I. units (second, meters, Newtons, ...)
Angles are in degrees

endheader
time	SC_y	SC_z	SC_x	AC_y	AC_z	AC_x	GH_y	GH_z	GH_yy	EL_x	PS_y
       0.0              -28.59           -1.6           13.3          66.56        -0.9693         -13.23          114.4        -0.2911         -129.4          134.8          41.49
   0.03155              -28.59         -1.599          13.31          66.56        -0.9684         -13.23          114.4        -0.2906         -129.4          134.8          41.49
    0.0631              -28.59         -1.598          13.31          66.56        -0.9675         -13.22          114.4        -0.2901         -129.4          134.8          41.49
   0.09466              -28.59         -1.597          13.32          66.56        -0.9666         -13.22          114.5        -0.2895         -129.4          134.8           41.5
    0.1262              -28.59         -1.596          13.32          66.55        -0.9655         -13.21          114.5         -0.289         -129.4          134.8           41.5
    0.1578              -28.59         -1.595          13.33          66.55        -0.9644         -13.21          114.5        -0.2883         -129.4          134.8           41.5
    0.1893              -28.59         -1.594          13.34          66.55        -0.9633          -13.2          114.5        -0.2877         -129.4          134.8          41.51
    0.2209               -28.6         -1.592          13.34          66.54         -0.962          -13.2          114.5        -0.2869         -129.4          134.8          41.51
    0.2524               -28.6         -1.591          13.35          66.54        -0.9607         -13.19          114.5        -0.2862         -129.4          134.8          41.52
     0.284               -28.6          -1.59          13.36          66.54        -0.9592         -13.18          114.5        -0.2854         -129.4          134.8          41.52
    0.3155               -28.6         -1.588          13.37          66.53        -0.9577         -13.17          114.5        -0.2845         -129.4          134.8          41.53
    0.3471               -28.6         -1.586          13.38          66.53         -0.956         -13.17          114.6        -0.2835         -129.4          134.8          41.53
    0.3786              -28.61         -1.585          13.39          66.53        -0.9542         -13.16          114.6        -0.2825         -129.4          134.8          41.54
    0.4102              -28.61         -1.583           13.4          66.52        -0.9523         -13.15          114.6        -0.2814         -129.4          134.8          41.55
    0.4417              -28.61          -1.58          13.41          66.52        -0.9502         -13.14          114.6        -0.2802         -129.4          134.8          41.56
    0.4733              -28.62         -1.578          13.42          66.51        -0.9479         -13.13          114.7        -0.2789         -129.4          134.8          41.56
    0.5048              -28.62         -1.576          13.44           66.5        -0.9455         -13.12          114.7        -0.2775         -129.4          134.8          41.57
    0.5364              -28.62         -1.573          13.45           66.5        -0.9428          -13.1          114.7         -0.276         -129.4          134.8          41.58
    0.5679              -28.63          -1.57          13.47          66.49        -0.9399         -13.09          114.7        -0.2743         -129.4          134.8          41.59
    0.5995              -28.63         -1.567          13.49          66.48        -0.9366         -13.07          114.8        -0.2724         -129.5          134.8           41.6
     0.631              -28.64         -1.563          13.51          66.47        -0.9331         -13.06          114.8        -0.2704         -129.5          134.8          41.62
    0.6626              -28.64         -1.559          13.53          66.46        -0.9292         -13.04          114.8        -0.2682         -129.5          134.8          41.63
    0.6942              -28.65         -1.555          13.55          66.45        -0.9249         -13.02          114.9        -0.2658         -129.5          134.8          41.65
    0.7257              -28.66          -1.55          13.58          66.44        -0.9202         -12.99          114.9         -0.263         -129.5          134.8          41.66
    0.7573              -28.67         -1.545          13.61          66.43        -0.9149         -12.97          115.0          -0.26         -129.5          134.8          41.68
    0.7888              -28.67         -1.539          13.64          66.41         -0.909         -12.94          115.1        -0.2567         -129.5          134.8           41.7
    0.8204              -28.68         -1.532          13.68           66.4        -0.9024         -12.91          115.1        -0.2529         -129.6          134.7          41.73
    0.8519              -28.69         -1.525          13.72          66.38         -0.895         -12.87          115.2        -0.2486         -129.6          134.7          41.76
    0.8835              -28.71         -1.516          13.77          66.36        -0.8866         -12.83          115.3        -0.2438         -129.6          134.7          41.79
     0.915              -28.72         -1.506          13.82          66.33        -0.8771         -12.79          115.4        -0.2384         -129.6          134.7          41.82
    0.9466              -28.74         -1.495          13.88          66.31        -0.8662         -12.73          115.5        -0.2322         -129.7          134.7          41.86
    0.9781              -28.76         -1.483          13.95          66.28        -0.8537         -12.67          115.6         -0.225         -129.7          134.7           41.9
      1.01              -28.78         -1.468          14.03          66.24        -0.8393         -12.61          115.8        -0.2168         -129.7          134.7          41.96
     1.041               -28.8         -1.451          14.13           66.2        -0.8225         -12.52          116.0        -0.2072         -129.8          134.7          42.02
     1.073              -28.83         -1.431          14.24          66.15        -0.8029         -12.43          116.2         -0.196         -129.9          134.7          42.09
     1.104              -28.86         -1.408          14.37          66.09        -0.7798         -12.32          116.4        -0.1828         -129.9          134.6          42.17
     1.136               -28.9          -1.38          14.52          66.03        -0.7524         -12.19          116.7        -0.1671         -130.0          134.6          42.27
     1.167              -28.95         -1.347          14.71          65.94        -0.7195         -12.03          117.0        -0.1483         -130.1          134.6          42.39
